<?xml version="1.0" encoding="UTF-8" standalone="no"?>
        <svg 
    viewBox="4.6142578125 -86.42578125 447.4365234375 56.982421875"
    width="442.822265625"
    height="143.408203125"
   xmlns="http://www.w3.org/2000/svg"
   xmlns:svg="http://www.w3.org/2000/svg">
   <path d="M20.87-69.29L20.87-114.48L20.87-122.68L45.26-114.48L108.62-114.48L118.51-125.54L138.28-109.94Q137.40-108.91 135.86-108.00Q134.33-107.08 131.98-106.64L131.98-106.64L131.98-9.74Q131.98-2.64 130.30 2.31Q128.61 7.25 123.23 10.11Q117.85 12.96 106.64 13.92L106.64 13.92Q106.35 8.79 105.73 4.98Q105.10 1.17 103.64-1.03L103.64-1.03Q102.10-3.44 99.76-5.13Q97.41-6.81 92.29-7.98L92.29-7.98L92.29-9.74Q92.29-9.74 94.19-9.63Q96.09-9.52 98.77-9.38Q101.44-9.23 103.89-9.12Q106.35-9.01 107.37-9.01L107.37-9.01Q109.20-9.01 109.72-9.81Q110.23-10.62 110.23-12.01L110.23-12.01L110.23-110.23L42.11-110.23L42.11-69.29Q42.11-58.89 41.24-47.68Q40.36-36.47 36.95-25.42Q33.54-14.36 26.18-4.28Q18.82 5.79 5.86 13.92L5.86 13.92L4.61 12.89Q12.23 1.10 15.64-12.56Q19.04-26.22 19.96-40.69Q20.87-55.15 20.87-69.29L20.87-69.29ZM63.87-89.43L63.87-107.52L87.60-105.62Q87.45-104.22 86.61-103.34Q85.77-102.47 83.42-102.17L83.42-102.17L83.42-89.43L86.43-89.43L94.19-98.88Q94.19-98.88 96.68-97.05Q99.17-95.21 102.58-92.61Q105.98-90.01 108.76-87.60L108.76-87.60Q108.11-85.18 104.74-85.18L104.74-85.18L83.42-85.18L83.42-66.72L85.99-66.72L94.48-77.27Q94.48-77.27 97.19-75.26Q99.90-73.24 103.56-70.39Q107.23-67.53 110.23-64.97L110.23-64.97Q109.57-62.55 106.20-62.55L106.20-62.55L44.09-62.55L42.92-66.72L63.87-66.72L63.87-85.18L45.92-85.18L44.68-89.43L63.87-89.43ZM47.39-6.01L47.39-50.39L47.39-58.08L67.24-50.39L80.71-50.39L89.28-59.55L106.79-46.36Q106.13-45.56 104.85-44.75Q103.56-43.95 101.51-43.51L101.51-43.51L101.51-15.89Q101.44-15.23 98.80-13.99Q96.17-12.74 92.43-11.68Q88.70-10.62 85.47-10.62L85.47-10.62L82.03-10.62L82.03-20.87L66.58-20.87L66.58-11.87Q66.58-10.99 64.12-9.59Q61.67-8.20 57.86-7.10Q54.05-6.01 50.10-6.01L50.10-6.01L47.39-6.01ZM66.58-46.22L66.58-25.05L82.03-25.05L82.03-46.22L66.58-46.22ZM180.76-108.91L180.76-128.39L206.40-126.42Q206.32-125.10 205.37-124.11Q204.42-123.12 201.78-122.68L201.78-122.68L201.78-108.91L204.13-108.91L214.82-123.78Q214.82-123.78 216.76-122.13Q218.70-120.48 221.74-117.92Q224.78-115.36 228.08-112.46Q231.37-109.57 234.01-107.08L234.01-107.08Q233.79-105.83 232.58-105.29Q231.37-104.74 229.83-104.74L229.83-104.74L154.47-104.74L153.30-108.91L180.76-108.91ZM236.87-128.10L236.87-128.10L264.92-119.38Q264.55-118.14 263.42-117.26Q262.28-116.38 259.35-116.24L259.35-116.24Q257.52-110.38 255.21-104.08Q252.91-97.78 249.90-91.33L249.90-91.33L266.09-91.33L277.66-108.03Q277.66-108.03 279.75-106.20Q281.84-104.37 285.10-101.51Q288.35-98.66 291.83-95.47Q295.31-92.29 298.02-89.58L298.02-89.58Q297.36-87.16 293.70-87.16L293.70-87.16L284.69-87.16Q282.42-70.24 277.48-55.00Q272.53-39.77 263.38-26.88L263.38-26.88Q276.78-12.52 298.54-4.47L298.54-4.47L298.02-3.00Q284.03 0.51 280.52 14.72L280.52 14.72Q271.36 9.45 264.55 2.16Q257.74-5.13 252.91-14.28L252.91-14.28Q244.04-5.27 232.14 1.90Q220.24 9.08 204.57 14.28L204.57 14.28L203.69 12.74Q218.55 4.17 228.99-6.48Q239.43-17.14 246.31-29.52L246.31-29.52Q243.16-38.45 241.15-48.74Q239.14-59.03 237.74-70.53L237.74-70.53Q231.74-62.18 224.27-55.81L224.27-55.81L227.71-52.81Q226.68-51.78 225.44-51.42Q224.19-51.05 221.70-50.83L221.70-50.83Q217.31-49.07 211.56-46.95Q205.81-44.82 200.10-42.92L200.10-42.92L208.23-42.33Q207.79-39.18 203.25-38.53L203.25-38.53L203.25-33.62L235.03-35.38L235.18-33.33Q228.88-31.27 220.97-28.93Q213.06-26.59 203.25-24.02L203.25-24.02L203.25-7.18Q203.25-0.51 201.60 4.06Q199.95 8.64 194.71 11.24Q189.48 13.84 178.64 14.72L178.64 14.72Q178.42 10.18 177.83 6.92Q177.25 3.66 175.78 1.46L175.78 1.46Q174.24-0.51 171.90-2.09Q169.56-3.66 164.43-4.61L164.43-4.61L164.43-6.45Q164.43-6.45 166.44-6.34Q168.46-6.23 171.24-6.08Q174.02-5.93 176.55-5.82Q179.08-5.71 180.03-5.71L180.03-5.71Q182.37-5.71 182.37-7.62L182.37-7.62L182.37-18.60L164.28-14.14Q162.67-11.13 159.59-10.62L159.59-10.62L152.71-31.49Q157.40-31.49 165.05-31.79Q172.71-32.08 182.37-32.52L182.37-32.52L182.37-44.38L192.11-43.65Q193.95-46.00 195.70-48.74Q197.46-51.49 198.93-53.98L198.93-53.98L162.01-53.98L160.62-58.23L199.66-58.23L207.13-65.55L205.08-65.41L201.64-65.41L201.64-70.53L181.35-70.53L181.35-67.97Q181.35-67.09 178.82-65.73Q176.29-64.38 172.41-63.32Q168.53-62.26 164.58-62.26L164.58-62.26L161.87-62.26L161.87-102.76L182.08-95.07L200.10-95.07L208.81-104.52L227.12-90.89Q226.39-90.01 224.93-89.10Q223.46-88.18 221.12-87.74L221.12-87.74L221.12-70.02Q220.97-69.51 218.37-68.44Q215.77-67.38 212.40-66.43L212.40-66.43L222.58-57.28Q226.17-65.04 228.77-74.19Q231.37-83.35 233.09-92.91Q234.81-102.47 235.73-111.51Q236.65-120.56 236.87-128.10ZM181.35-74.71L201.64-74.71L201.64-90.89L181.35-90.89L181.35-74.71ZM240.45-74.56L240.45-74.56Q244.56-55.81 252.32-41.97L252.32-41.97Q256.57-52.59 258.95-63.90Q261.33-75.22 262.21-87.16L262.21-87.16L247.78-87.16Q246.24-83.86 244.41-80.71Q242.58-77.56 240.45-74.56ZM408.62-17.29L409.79-18.16Q422.39-17.21 430.11-13.95Q437.84-10.69 441.54-6.37Q445.24-2.05 445.72 2.23Q446.19 6.52 444.10 9.67Q442.02 12.82 438.13 13.70Q434.25 14.58 429.42 12.01L429.42 12.01Q427.44 6.88 424.00 1.57Q420.56-3.74 416.49-8.61Q412.43-13.48 408.62-17.29L408.62-17.29ZM342.11-7.32L342.11-46.07L342.11-52.37L358.37-46.07L359.40-46.07L359.40-79.17L356.40-79.17L356.40-73.17Q356.40-72.73 353.25-71.37Q350.10-70.02 344.68-70.02L344.68-70.02L342.11-70.02L342.11-86.28Q341.31-85.18 338.96-84.74L338.96-84.74L338.96-31.35Q338.96-30.47 336.11-29.19Q333.25-27.91 330.32-27.91L330.32-27.91L328.20-27.91L328.20-89.58L342.11-88.18L342.11-110.23L324.90-110.23L324.90-7.32L342.11-7.32ZM377.12-14.58L377.12-94.19L377.12-102.32L396.02-94.63L396.17-110.23L377.71-110.23L376.46-114.48L416.82-114.48L427.66-128.69Q427.66-128.69 429.68-127.11Q431.69-125.54 434.80-123.08Q437.92-120.63 441.32-117.85Q444.73-115.06 447.44-112.65L447.44-112.65Q446.78-110.23 443.12-110.23L443.12-110.23L418.07-110.23Q414.26-105.98 409.94-101.73Q405.62-97.49 401.51-94.19L401.51-94.19L416.53-94.19L425.39-103.64L442.97-90.16Q442.38-89.36 441.14-88.59Q439.89-87.82 437.84-87.45L437.84-87.45L437.84-22.34Q437.77-21.75 435.06-20.54Q432.35-19.34 428.54-18.31Q424.73-17.29 421.36-17.29L421.36-17.29L417.92-17.29L417.92-22.05L396.61-22.05L396.61-21.02Q396.61-19.92 393.46-18.02L393.46-18.02L412.94-6.15Q411.84-4.32 408.03-5.27L408.03-5.27Q402.54-1.17 393.93 2.75Q385.33 6.67 375.44 9.78Q365.55 12.89 356.25 14.43L356.25 14.43L355.37 12.74Q360.72 9.74 366.21 5.46Q371.70 1.17 376.68-3.44L376.68-3.44Q375.44-3.15 374.56-3.15L374.56-3.15L324.90-3.15L324.90 2.71Q324.90 3.59 321.28 5.86Q317.65 8.13 311.13 8.13L311.13 8.13L308.13 8.13L308.13-122.24L328.49-114.48L348.12-114.48L357.93-127.51Q357.93-127.51 359.73-126.05Q361.52-124.58 364.34-122.31Q367.16-120.04 370.20-117.48Q373.24-114.92 375.73-112.65L375.73-112.65Q375.07-110.23 371.56-110.23L371.56-110.23L356.40-110.23L356.40-83.42L358.08-83.42L364.01-89.87L377.12-79.98Q375.59-78.15 371.41-77.27L371.41-77.27L371.41-38.23Q371.34-37.72 369.65-36.91Q367.97-36.11 365.63-35.45Q363.28-34.79 361.38-34.79L361.38-34.79L359.40-34.79L359.40-41.82L356.40-41.82L356.40-8.28L364.01-19.63Q364.01-19.63 366.58-17.29Q369.14-14.94 372.55-11.68Q375.95-8.42 378.59-5.57L378.59-5.57L378.30-5.13Q381.01-7.76 383.35-10.44Q385.69-13.11 387.74-15.60L387.74-15.60Q385.99-15.16 384.05-14.87Q382.10-14.58 380.13-14.58L380.13-14.58L377.12-14.58ZM417.92-49.22L417.92-67.97L396.61-67.97L396.61-49.22L417.92-49.22ZM396.61-72.14L417.92-72.14L417.92-90.01L396.61-90.01L396.61-72.14ZM417.92-26.22L417.92-44.97L396.61-44.97L396.61-26.22L417.92-26.22Z"/>
    </svg>
        