<svg width="136" height="136" version="1.1" xmlns="http://www.w3.org/2000/svg" xmlns:xlink="http://www.w3.org/1999/xlink"><path d="M95.20 49.94L95.20 49.94Q95.20 51.30 93.57 51.85L93.57 51.85Q91.39 52.39 76.43 52.94L76.43 52.94L71.13 53.21Q64.33 54.16 58.89 55.38L58.89 55.38L53.99 56.74Q51.54 57.15 48.69 55.25L48.69 55.25L47.06 54.02Q47.06 53.21 47.60 52.80L47.60 52.80L65.42 49.94L65.14 38.52Q59.43 40.15 55.08 38.93L55.08 38.93L52.63 37.84L51.54 36.89L52.36 35.94L65.14 33.90Q64.60 32.67 64.46 27.78L64.46 27.78Q64.33 23.83 62.15 22.20L62.15 22.20L62.15 20.30Q64.46 19.07 69.09 21.25L69.09 21.25Q70.31 21.79 70.99 22.06L70.99 22.06L72.22 23.42Q72.62 24.92 71.81 29.54L71.81 29.54Q71.40 30.90 71.40 31.99L71.40 31.99L79.97 29.95Q84.46 29.27 86.90 31.86L86.90 31.86Q86.90 34.98 70.99 37.30L70.99 37.30Q70.58 39.20 70.18 47.77L70.18 47.77L70.18 48.86Q71.54 48.86 80.51 46.95L80.51 46.95Q90.44 44.78 94.52 49.13L94.52 49.13Q94.93 49.54 95.20 49.94ZM100.23 112.91L100.23 112.91Q98.46 111.96 92.21 104.75L92.21 104.75Q87.58 99.45 85.14 97.68L85.14 97.68L84.32 96.18L84.59 95.64L94.25 97.27Q95.74 97.27 96.29 97.00L96.29 97.00Q98.60 95.37 98.60 92.92L98.60 92.92L99.14 63.00Q99.42 50.76 98.87 39.34L98.87 39.34Q98.46 29.41 97.51 22.20L97.51 22.20Q96.70 16.76 94.93 15.13L94.93 15.13Q94.38 14.72 93.70 14.45L93.70 14.45Q91.12 13.09 45.15 21.38L45.15 21.38Q43.52 21.66 42.70 21.79L42.70 21.79Q41.62 49.94 40.26 59.33L40.26 59.33Q39.30 66.94 37.67 73.47L37.67 73.47Q33.18 91.15 24.62 103.94L24.62 103.94Q22.17 107.34 19.86 109.78L19.86 109.78Q18.09 111.55 16.32 111.55L16.32 111.55L16.32 110.06Q34.41 76.87 34.41 48.31L34.41 48.31L34.68 31.18Q34.27 20.70 30.60 15.26L30.60 15.26Q30.60 13.36 31.82 12.68L31.82 12.68Q36.72 12.95 41.48 16.08L41.48 16.08Q59.30 14.72 78.47 10.78L78.47 10.78L92.89 7.65Q94.25 7.38 95.61 7.24L95.61 7.24Q99.28 6.97 104.72 10.64L104.72 10.64Q106.76 12.00 107.98 13.36L107.98 13.36Q108.80 14.18 108.80 15.54L108.80 15.54Q108.80 16.49 107.30 20.02L107.30 20.02L107.03 20.70Q106.08 23.56 106.08 33.76L106.08 33.76Q106.22 39.20 107.98 80.68L107.98 80.68Q108.39 88.30 108.53 94.42L108.53 94.42Q108.66 97.68 107.03 104.34L107.03 104.34Q105.54 110.46 104.04 111.82L104.04 111.82Q102.68 113.05 100.23 112.91ZM82.28 79.73L82.28 79.73Q84.05 81.50 84.18 81.77L84.18 81.77Q84.32 82.18 84.32 82.58L84.32 82.58L83.50 83.13Q75.48 83.67 58.89 85.98L58.89 85.98L58.21 90.61Q58.07 91.02 57.80 91.42L57.80 91.42Q56.44 91.42 54.94 88.98L54.94 88.98L54.40 88.43L50.46 73.88Q49.23 69.94 47.60 66.94L47.60 66.94L47.74 65.18L54.26 65.86Q54.54 65.86 54.67 65.86L54.67 65.86Q65.69 64.90 76.70 60.82L76.70 60.82Q78.61 60.28 79.29 60.28L79.29 60.28Q81.33 60.28 85.41 63.00L85.41 63.00Q87.04 63.95 88.13 64.36L88.13 64.36L90.03 66.13Q91.53 67.49 87.18 71.30L87.18 71.30Q85.82 72.66 85.54 73.06L85.54 73.06Q82.69 77.82 82.28 79.73ZM78.74 68.17L78.74 68.17L77.93 66.94L56.30 69.80L58.21 81.90Q60.38 81.63 71.54 79.05L71.54 79.05Q74.26 78.37 76.43 78.10L76.43 78.10Q78.61 71.30 78.74 68.17Z" stroke="#000" fill="black" /></svg>