<svg width="136" height="136" version="1.1" xmlns="http://www.w3.org/2000/svg" xmlns:xlink="http://www.w3.org/1999/xlink"><path d="M45.15 22.17L45.15 22.17Q39.03 19.18 32.64 11.42L32.64 11.42L32.37 9.38Q33.18 9.11 36.72 9.11L36.72 9.11Q44.06 12.10 45.29 12.78L45.29 12.78Q50.86 16.18 48.96 20.67L48.96 20.67Q48.28 22.17 45.15 22.17ZM120.77 109.75L120.77 109.75Q120.50 111.66 109.07 111.66L109.07 111.66L99.55 111.66Q98.33 111.66 97.24 111.38L97.24 111.38Q94.38 110.70 81.46 93.43L81.46 93.43Q80.38 91.94 79.83 91.26L79.83 91.26Q75.48 97.24 65.28 102L65.28 102Q55.08 106.62 49.10 104.58L49.10 104.58L64.74 96.02Q71.81 91.53 75.89 85.68L75.89 85.68L66.91 72.49Q63.92 68.54 60.38 66.23L60.38 66.23Q58.48 67.86 57.26 67.05L57.26 67.05Q58.07 64.60 62.56 57.12L62.56 57.12Q62.97 56.58 63.24 56.03L63.24 56.03Q71.67 41.34 75.07 29.51L75.07 29.51Q76.02 26.11 76.30 23.94L76.30 23.94Q76.30 22.98 74.80 19.04L74.80 19.04Q74.26 17.54 74.26 16.59L74.26 16.59Q77.38 15.10 81.74 17.54L81.74 17.54L83.37 18.63Q86.09 20.54 86.36 21.62L86.36 21.62Q86.50 22.44 74.26 47.06L74.26 47.06Q79.97 46.51 93.98 42.16L93.98 42.16Q97.65 40.94 100.23 40.26L100.23 40.26Q101.46 39.85 103.22 39.85L103.22 39.85Q106.22 39.85 109.07 41.48L109.07 41.48L109.89 42.84L109.62 43.38Q107.85 44.74 88.67 49.64L88.67 49.64L87.04 50.05Q91.80 51.54 93.57 53.58L93.57 53.58L92.48 57.26Q88.40 74.12 87.31 77.38L87.31 77.38Q85.68 82.01 83.64 85.95L83.64 85.95Q91.53 96.29 107.71 103.90L107.71 103.90Q107.85 104.04 120.77 109.75ZM81.33 51.68L81.33 51.68Q78.20 51.68 72.35 50.18L72.35 50.18Q66.10 60.38 62.97 63.78L62.97 63.78Q65.28 63.78 66.78 65.14L66.78 65.14Q68.14 66.37 76.43 77.25L76.43 77.25L78.88 80.24Q85.54 66.64 82.69 55.76L82.69 55.76Q82.14 53.58 81.33 51.68ZM61.61 27.47L61.61 27.47Q61.88 28.29 61.34 28.83L61.34 28.83Q61.20 29.10 60.66 29.24L60.66 29.24Q59.84 29.65 52.90 30.19L52.90 30.19Q43.25 31.42 36.04 32.78L36.04 32.78Q32.91 33.32 21.08 36.18L21.08 36.18Q14.28 37.94 13.74 38.08L13.74 38.08Q10.61 38.49 7.48 36.45L7.48 36.45Q5.98 35.50 4.90 34.27L4.90 34.27Q4.90 32.64 6.39 32.23L6.39 32.23Q6.94 32.10 17.27 31.01L17.27 31.01Q18.09 31.01 18.63 30.87L18.63 30.87Q28.42 29.51 45.56 26.38L45.56 26.38Q53.72 24.89 54.13 24.89L54.13 24.89Q59.57 24.62 61.61 27.47ZM57.94 43.38L57.94 43.38Q57.94 44.74 54.13 49.37L54.13 49.37L51.82 52.63Q50.46 55.35 53.31 56.58L53.31 56.58L53.72 57.12Q53.45 58.34 44.74 58.89L44.74 58.89Q36.31 59.70 28.15 61.34L28.15 61.34L28.02 62.97Q27.06 62.97 24.75 61.61L24.75 61.61Q20.13 50.86 19.99 50.73L19.99 50.73Q19.04 48.82 17.95 47.19L17.95 47.19Q16.86 45.70 16.86 44.47L16.86 44.47L17.95 43.79Q22.71 45.02 32.91 42.57L32.91 42.57Q35.90 41.75 37.40 41.48L37.40 41.48L48.01 38.62Q49.37 38.49 50.46 38.49L50.46 38.49L56.71 42.30Q57.39 42.84 57.94 43.38ZM47.19 44.06L47.19 44.06Q45.70 42.70 28.02 47.33L28.02 47.33Q26.11 47.74 25.57 47.87L25.57 47.87L27.61 56.17Q27.74 56.71 28.02 57.26L28.02 57.26Q31.01 56.58 45.56 53.58L45.56 53.58Q47.19 47.19 47.19 44.06ZM55.22 83.23L55.22 83.23Q53.99 85.95 45.02 89.22L45.02 89.22Q44.34 89.49 43.93 89.62L43.93 89.62Q46.51 102.82 43.38 110.98L43.38 110.98Q41.48 116.14 37.13 119.14L37.13 119.14Q36.31 119.95 35.09 119.95L35.09 119.95Q34 119.95 31.28 116.42L31.28 116.42Q30.46 115.33 30.06 114.92L30.06 114.92L25.43 110.98Q24.89 110.43 24.62 109.75L24.62 109.75L31.82 110.16L31.96 110.16Q38.22 110.16 38.76 99.55L38.76 99.55Q38.90 95.47 38.08 92.07L38.08 92.07Q22.58 98.19 20.67 99.14L20.67 99.14Q16.46 101.18 13.06 103.36L13.06 103.36L11.70 103.36L4.76 98.87Q4.35 98.74 4.35 95.88L4.35 95.88Q5.30 95.34 9.38 95.20L9.38 95.20Q9.93 95.20 10.34 95.20L10.34 95.20Q15.10 94.38 30.60 89.62L30.60 89.62Q34.41 88.54 37.13 87.86L37.13 87.86Q37.13 84.73 33.05 80.24L33.05 80.24Q31.82 78.88 31.42 78.34L31.42 78.34Q33.05 76.70 37.81 78.74L37.81 78.74L38.22 79.15L43.66 70.99Q43.66 69.22 42.84 68.82L42.84 68.82Q37.54 69.63 25.43 74.53L25.43 74.53Q24.34 75.07 23.39 75.34L23.39 75.34Q15.50 74.66 14.82 70.99L14.82 70.99Q15.64 70.58 20.13 70.18L20.13 70.18Q20.81 70.18 21.22 70.04L21.22 70.04Q25.02 69.50 38.76 65.28L38.76 65.28Q42.30 64.19 45.02 63.51L45.02 63.51Q50.05 64.19 54.81 68.82L54.81 68.82Q55.49 70.31 54.40 71.26L54.40 71.26Q53.99 71.67 53.31 71.94L53.31 71.94Q47.06 74.94 40.12 80.38L40.12 80.38Q40.66 81.06 43.25 86.09L43.25 86.09L51.68 83.23Q54.40 82.55 55.22 83.23Z" stroke="#000" fill="black" /></svg>