<svg width="136" height="136" version="1.1" xmlns="http://www.w3.org/2000/svg" xmlns:xlink="http://www.w3.org/1999/xlink"><path d="M113.29 9.21L113.29 9.21Q113.29 10.44 111.25 11.53L111.25 11.53L110.70 11.80Q107.85 12.61 89.22 15.88L89.22 15.88Q85.14 16.56 82.14 17.24L82.14 17.24L84.05 19.96Q84.32 20.91 83.91 21.73L83.91 21.73Q81.87 23.49 77.93 29.48L77.93 29.48L75.62 32.61Q85.95 30.84 94.11 27.44L94.11 27.44Q99.69 27.44 106.35 32.20L106.35 32.20Q106.62 32.33 106.90 32.61L106.90 32.61Q107.58 33.97 105.81 36.69L105.81 36.69L105.13 38.18Q102.14 48.38 104.86 71.09L104.86 71.09Q102.95 55.32 105.26 74.77L105.26 74.77Q103.09 80.75 100.50 82.65L100.50 82.65Q97.92 82.65 95.88 77.35L95.88 77.35Q95.61 76.67 95.47 76.40L95.47 76.40Q84.86 76.67 70.04 78.17L70.04 78.17Q69.22 80.21 68.54 80.75L68.54 80.75Q67.32 80.75 65.42 77.89L65.42 77.89Q63.65 75.45 64.46 70.01L64.46 70.01Q64.60 69.05 64.74 68.51L64.74 68.51Q66.50 55.18 65.82 44.30L65.82 44.30Q65.69 41.85 65.42 39.54L65.42 39.54Q65.28 39.00 63.78 35.05L63.78 35.05Q63.24 33.69 63.24 32.61L63.24 32.61Q64.46 31.52 67.18 33.01L67.18 33.01Q69.77 34.37 71.13 33.15L71.13 33.15Q74.53 26.49 75.75 18.60L75.75 18.60Q71.40 19.41 67.73 18.73L67.73 18.73L64.19 17.78Q62.56 16.97 61.47 15.88L61.47 15.88Q61.47 15.20 62.56 14.93L62.56 14.93Q63.38 14.79 76.02 13.16L76.02 13.16Q90.17 10.98 104.04 7.17L104.04 7.17Q106.08 6.63 107.03 6.63L107.03 6.63Q110.02 6.63 113.29 9.21ZM95.88 73.95L95.88 73.95Q97.24 64.57 96.97 46.89L96.97 46.89Q96.83 36.14 95.47 33.97L95.47 33.97Q94.52 32.06 92.21 32.06L92.21 32.06Q90.30 31.93 74.66 36.01L74.66 36.01Q72.62 36.55 71.40 36.82L71.40 36.82L71.13 46.89Q71.81 46.89 80.10 45.12L80.10 45.12Q87.58 43.49 90.98 46.07L90.98 46.07L91.39 46.75Q91.39 47.43 90.58 47.97L90.58 47.97Q82.42 49.88 70.99 49.88L70.99 49.88L70.99 59.94L83.78 57.77Q89.35 57.36 91.26 59.26L91.26 59.26Q91.26 60.49 90.85 60.89L90.85 60.89Q78.34 63.48 73.17 62.80L73.17 62.80Q71.94 62.66 70.99 62.39L70.99 62.39L70.86 74.77L90.98 71.50Q92.48 71.23 94.93 73.13L94.93 73.13Q95.47 73.54 95.88 73.95ZM108.12 110.40L107.17 109.99Q104.31 107.41 97.92 98.97L97.92 98.97Q97.24 98.16 96.70 97.34L96.70 97.34L90.71 90.54Q89.22 88.64 88.67 86.73L88.67 86.73L89.35 85.24Q106.90 93.13 110.02 100.20L110.02 100.20Q111.38 102.92 110.70 107.41L110.70 107.41Q110.16 111.08 108.12 110.40L108.12 110.40ZM59.02 72.05L59.98 73.41Q59.98 74.77 59.02 75.17L59.02 75.17Q57.94 75.58 47.46 76.81L47.46 76.81Q27.88 79.93 17.95 86.60L17.95 86.60Q17.27 87.14 16.46 87.69L16.46 87.69Q13.33 87.69 12.10 83.88L12.10 83.88Q11.83 82.79 11.83 81.84L11.83 81.84Q11.83 81.43 13.74 76.67L13.74 76.67Q14.82 74.09 14.82 72.45L14.82 72.45L16.32 43.35Q16.86 33.69 15.91 26.49L15.91 26.49Q14.82 19.69 12.51 14.25L12.51 14.25Q12.78 13.16 13.19 12.75L13.19 12.75Q14.82 12.75 18.90 14.79L18.90 14.79Q20.40 15.47 21.35 15.61L21.35 15.61Q27.20 15.74 39.58 11.93L39.58 11.93Q40.94 11.53 42.43 10.98L42.43 10.98Q48.01 8.67 49.23 8.53L49.23 8.53Q51.82 8.13 54.67 9.35L54.67 9.35Q56.17 9.89 57.12 10.71L57.12 10.71L56.98 12.21L40.94 16.83L40.80 16.83L43.93 19.96Q43.93 20.77 42.02 33.29L42.02 33.29Q41.89 33.83 41.89 34.37L41.89 34.37Q42.98 34.37 45.97 32.61L45.97 32.61Q48.01 31.38 50.05 32.06L50.05 32.06Q50.46 32.47 54.13 34.51L54.13 34.51Q55.90 35.46 56.30 36.69L56.30 36.69L56.44 38.45L56.30 38.86Q53.18 42.13 51.00 48.38L51.00 48.38Q53.58 49.74 53.72 49.88L53.72 49.88Q54.13 50.42 54.26 50.97L54.26 50.97L53.31 51.78Q48.14 52.19 40.39 54.09L40.39 54.09Q43.66 57.09 43.93 58.72L43.93 58.72Q43.93 58.99 43.93 59.40L43.93 59.40L42.98 63.34L41.62 72.18L41.62 72.32Q43.11 72.32 49.50 70.41L49.50 70.41Q56.17 68.37 59.02 72.05L59.02 72.05ZM45.02 48.65L47.33 38.18L46.65 37.37Q43.79 37.37 35.50 39.68L35.50 39.68Q33.59 40.09 32.23 40.36L32.23 40.36L33.73 51.78L45.02 48.65ZM34.82 55.18L34.82 55.18Q33.86 55.05 33.73 56.41L33.73 56.41L33.18 57.77L32.91 57.90Q30.46 57.90 27.34 45.25L27.34 45.25Q26.52 41.58 26.11 40.77L26.11 40.77L24.75 37.64L24.75 37.23Q24.75 36.41 25.43 36.01L25.43 36.01L30.74 37.23L36.99 36.01Q36.58 19.82 36.45 17.92L36.45 17.92Q27.47 19.41 25.16 19.41L25.16 19.41Q23.53 19.28 22.17 19.01L22.17 19.01Q21.35 20.91 20.94 62.66L20.94 62.66Q20.81 74.22 20.94 75.58L20.94 75.58Q21.22 77.21 22.58 77.21Q23.94 77.21 32.64 74.77L32.64 74.77Q35.09 74.09 36.45 73.81L36.45 73.81L36.99 55.86Q36.99 54.64 35.63 54.91L35.63 54.91Q35.09 54.91 34.82 55.18ZM79.70 86.87L79.70 86.87Q79.70 88.64 77.38 90.68L77.38 90.68Q57.12 107.00 49.23 107.27L49.23 107.27Q47.74 107.27 45.02 107.00L45.02 107.00L59.70 96.80Q67.73 90.54 70.86 83.74L70.86 83.74Q72.76 81.97 77.52 84.97L77.52 84.97Q79.15 85.92 79.70 86.87Z" stroke="#000" fill="black" /></svg>