<?xml version="1.0" standalone="no"?>
<!DOCTYPE svg PUBLIC "-//W3C//DTD SVG 20010904//EN"
 "http://www.w3.org/TR/2001/REC-SVG-20010904/DTD/svg10.dtd">
<svg version="1.0" xmlns="http://www.w3.org/2000/svg"
 width="199.000000pt" height="172.000000pt" viewBox="0 0 199.000000 172.000000"
 preserveAspectRatio="xMidYMid meet">

<g transform="translate(0.000000,172.000000) scale(0.100000,-0.100000)"
fill="#000000" stroke="none">
<path d="M907 1564 c-11 -11 -8 -52 4 -60 14 -8 30 15 27 40 -3 21 -20 31 -31
20z"/>
<path d="M1340 1515 c-8 -10 -30 -15 -64 -15 -39 0 -58 -5 -75 -21 -26 -24
-95 -37 -105 -20 -9 15 -49 14 -64 -1 -14 -14 -16 -48 -2 -48 5 0 13 8 19 17
8 14 12 15 25 4 26 -22 94 -15 135 13 27 19 48 25 84 24 49 -1 87 20 87 49 0
18 -25 17 -40 -2z"/>
<path d="M806 1480 c-5 -31 -12 -43 -32 -50 -39 -15 -43 -13 -46 27 -2 20 -9
38 -17 41 -11 4 -13 -14 -9 -97 4 -104 17 -140 37 -103 7 12 7 31 1 51 -8 29
-6 33 16 41 38 15 41 13 48 -24 6 -31 30 -55 39 -38 2 4 1 49 -1 100 -3 66 -8
92 -17 92 -7 0 -15 -18 -19 -40z"/>
<path d="M907 1484 c-9 -9 -9 -97 -1 -118 3 -9 13 -16 21 -16 13 0 15 11 11
60 -4 58 -17 88 -31 74z"/>
<path d="M560 1359 c0 -8 9 -20 20 -27 11 -7 20 -21 20 -31 0 -18 -2 -19 -32
-4 -20 10 -36 13 -45 7 -22 -14 -11 -29 17 -25 l25 3 -24 -26 c-27 -29 -21
-48 7 -23 44 40 55 -42 22 -158 -27 -93 -29 -337 -4 -412 22 -64 15 -205 -12
-234 -22 -24 -12 -36 16 -16 16 11 29 12 59 4 34 -9 43 -7 92 20 35 20 73 33
109 36 30 3 81 17 112 31 69 31 129 33 190 6 82 -36 177 -53 305 -53 67 -1
125 2 129 5 14 14 -9 28 -47 28 -24 0 -39 5 -39 13 0 48 -23 199 -36 237 -12
34 -16 98 -18 255 -3 191 -1 214 17 253 11 24 26 46 33 49 19 7 18 23 -1 23
-9 0 -29 -21 -46 -47 l-31 -48 5 -172 c2 -95 3 -173 1 -173 -1 0 -23 31 -48
69 -52 78 -119 140 -186 173 -39 20 -61 23 -165 23 -136 0 -166 -9 -268 -79
-58 -39 -127 -131 -127 -168 0 -9 -5 -27 -10 -40 -6 -13 -14 -50 -19 -83 -8
-54 -9 -47 -10 65 -1 102 4 147 25 244 20 90 25 126 17 146 -6 17 -6 31 1 42
14 23 -2 66 -31 86 -19 12 -23 12 -23 1z m557 -243 c89 -24 194 -119 246 -221
41 -83 87 -293 87 -400 0 -31 -155 -13 -297 35 -110 37 -137 37 -220 0 -40
-18 -82 -30 -108 -30 -29 0 -63 -10 -101 -30 -36 -19 -69 -30 -88 -28 l-29 3
1 175 c1 158 3 183 26 256 30 94 72 149 150 193 97 56 230 75 333 47z"/>
<path d="M955 1061 c-6 -11 20 -33 28 -24 4 3 7 10 7 14 0 11 -29 19 -35 10z"/>
<path d="M787 1044 c-14 -14 -7 -35 11 -32 9 2 17 10 17 17 0 16 -18 25 -28
15z"/>
<path d="M841 1026 c-11 -13 -11 -19 -1 -31 16 -19 40 -19 66 -1 24 18 10 34
-17 18 -17 -11 -21 -10 -27 9 -7 19 -9 19 -21 5z"/>
<path d="M984 965 c-7 -17 -41 -19 -78 -5 -17 6 -36 6 -56 -2 -23 -8 -35 -7
-43 1 -13 13 -27 14 -27 2 0 -17 32 -42 46 -37 9 3 16 -4 20 -19 9 -37 43 -43
70 -11 14 15 33 26 48 26 24 0 46 24 46 49 0 16 -20 13 -26 -4z m-89 -45 c0
-7 -6 -15 -12 -17 -8 -3 -13 4 -13 17 0 13 5 20 13 18 6 -3 12 -11 12 -18z"/>
<path d="M1469 1271 c-13 -11 -21 -22 -17 -26 8 -8 58 23 58 36 0 14 -16 10
-41 -10z"/>
<path d="M1494 1246 c-10 -8 -16 -17 -12 -21 8 -8 48 13 48 25 0 14 -13 12
-36 -4z"/>
<path d="M1549 983 c0 -27 -1 -68 -2 -92 -1 -28 3 -46 11 -48 9 -4 12 19 12
91 0 57 -4 96 -10 96 -5 0 -10 -21 -11 -47z"/>
<path d="M373 911 c7 -99 23 -161 46 -175 8 -5 8 0 2 16 -5 13 -14 74 -21 136
-16 146 -36 163 -27 23z"/>
<path d="M430 913 c0 -47 17 -110 32 -119 8 -5 9 -1 4 11 -3 10 -9 45 -13 77
-7 67 -23 89 -23 31z"/>
<path d="M1505 939 c-8 -13 2 -59 13 -59 5 0 8 16 8 35 -1 35 -9 44 -21 24z"/>
<path d="M1706 753 c-6 -19 -10 -21 -26 -11 -11 7 -22 9 -26 5 -14 -14 -7 -67
12 -88 l19 -22 -35 7 c-19 3 -60 22 -92 41 -32 18 -60 30 -63 25 -8 -14 69
-67 125 -85 38 -13 47 -20 43 -34 -7 -27 14 -35 28 -12 16 24 52 13 81 -24 23
-30 38 -32 38 -6 0 22 -58 71 -83 71 -9 0 -19 5 -22 10 -3 6 0 10 8 10 18 0
54 40 59 65 2 16 -3 20 -22 20 -19 0 -26 6 -31 25 -5 25 -5 25 -13 3z m-18
-56 c5 -24 -15 -21 -21 4 -3 13 -1 19 6 16 7 -2 13 -11 15 -20z m62 10 c0 -2
-10 -12 -22 -23 l-23 -19 19 23 c18 21 26 27 26 19z"/>
<path d="M513 585 c-18 -7 -42 -29 -55 -48 -26 -41 -42 -52 -86 -62 -32 -7
-32 -6 -32 32 -1 32 -3 35 -13 22 -9 -13 -16 -14 -30 -5 -14 8 -20 8 -27 -4
-14 -22 -13 -26 21 -64 l30 -35 -28 -17 c-101 -62 -183 -118 -183 -125 0 -19
21 -18 42 0 12 12 25 21 29 21 3 0 37 20 74 45 37 25 70 43 74 40 3 -4 11 -23
16 -43 7 -23 18 -38 29 -40 25 -5 55 34 56 71 0 30 -24 47 -43 28 -16 -16 -24
-14 -30 9 -6 23 6 33 54 49 24 8 46 26 67 57 19 25 45 50 62 56 17 5 30 14 30
19 0 13 -19 11 -57 -6z m-193 -118 c0 -5 -7 -4 -15 3 -8 7 -15 20 -15 29 1 13
3 13 15 -3 8 -11 15 -24 15 -29z m76 -124 c-10 -10 -19 5 -10 18 6 11 8 11 12
0 2 -7 1 -15 -2 -18z"/>
<path d="M1650 498 c0 -19 48 -64 57 -54 10 9 -8 36 -35 54 -19 13 -22 13 -22
0z"/>
<path d="M1410 303 c0 -4 9 -14 21 -21 18 -12 20 -11 17 5 -3 17 -38 32 -38
16z"/>
<path d="M537 264 c-10 -10 -9 -44 2 -44 13 0 23 32 13 42 -5 5 -11 5 -15 2z"/>
<path d="M302 230 c-26 -34 -27 -40 -8 -40 13 0 56 49 56 64 0 17 -29 2 -48
-24z"/>
</g>
</svg>
